<?xml version="1.0" standalone="no"?>
<!DOCTYPE svg PUBLIC "-//W3C//DTD SVG 20010904//EN"
 "http://www.w3.org/TR/2001/REC-SVG-20010904/DTD/svg10.dtd">
<svg version="1.0" xmlns="http://www.w3.org/2000/svg"
 width="500.000000pt" height="500.000000pt" viewBox="0 0 500.000000 500.000000"
 preserveAspectRatio="xMidYMid meet">
<metadata>
Created by potrace 1.14, written by Peter Selinger 2001-2017
</metadata>
<g transform="translate(0.000000,500.000000) scale(0.100000,-0.100000)"
fill="#000000" stroke="none">
<path d="M0 2500 l0 -2500 2500 0 2500 0 0 2500 0 2500 -2500 0 -2500 0 0
-2500z m2844 1750 l299 -41 385 -307 c212 -169 389 -309 394 -313 4 -3 89
-218 188 -478 l180 -473 -26 -382 -26 -381 -151 -200 c-84 -110 -231 -304
-327 -431 l-175 -231 -536 -156 -536 -157 -327 51 -326 51 -212 143 c-164 110
-255 180 -392 302 l-178 159 -155 293 -154 294 -30 194 -31 194 21 375 21 375
321 417 c177 229 327 423 333 430 18 18 1086 321 1116 316 14 -2 159 -22 324
-44z"/>
<path d="M2375 4245 l-110 -34 350 1 350 0 -190 28 c-299 42 -276 42 -400 5z"/>
<path d="M2610 3999 c381 -189 451 -222 456 -217 1 2 15 94 31 206 l30 202
-451 0 -451 0 385 -191z"/>
<path d="M2114 3830 c-39 -193 -67 -350 -63 -350 14 0 962 271 977 279 11 6
-812 421 -835 421 -4 0 -40 -158 -79 -350z"/>
<path d="M3116 3979 c-15 -110 -24 -204 -20 -209 11 -9 764 -173 770 -167 3 3
-699 567 -716 575 -3 1 -18 -88 -34 -199z"/>
<path d="M1766 3940 c-209 -127 -384 -234 -389 -239 -5 -5 124 -53 313 -116
177 -59 325 -103 329 -99 7 8 141 655 141 677 0 4 -3 7 -7 7 -5 -1 -179 -104
-387 -230z"/>
<path d="M1746 4066 l-319 -91 -28 -97 c-15 -53 -30 -111 -34 -129 l-7 -32 48
28 c210 123 685 415 674 414 -8 -1 -159 -42 -334 -93z"/>
<path d="M1154 3623 c-126 -163 -242 -315 -259 -337 -16 -23 74 59 200 182
l230 223 32 111 c18 62 31 113 29 115 -1 2 -106 -130 -232 -294z"/>
<path d="M2595 3614 c-253 -73 -477 -138 -498 -144 -21 -6 -36 -14 -33 -18 2
-4 38 -29 80 -55 l75 -48 63 18 c47 13 101 17 213 17 163 0 266 -18 377 -67
l56 -25 66 226 c36 124 65 226 63 227 -1 1 -209 -58 -462 -131z"/>
<path d="M3407 3310 c167 -236 308 -430 311 -430 8 0 193 682 188 687 -4 5
-777 173 -793 173 -7 0 126 -193 294 -430z"/>
<path d="M3012 3512 c-34 -119 -63 -220 -62 -223 0 -4 29 -26 65 -49 90 -58
184 -163 234 -260 30 -56 48 -81 64 -84 38 -9 366 -38 376 -35 9 4 -592 861
-607 866 -4 2 -35 -95 -70 -215z"/>
<path d="M1241 3265 c-56 -228 -101 -418 -99 -423 4 -11 851 601 849 614 -1 7
-392 143 -631 219 -13 4 -34 -71 -119 -410z"/>
<path d="M1048 3396 c-148 -144 -268 -265 -268 -268 0 -8 318 -298 327 -298 7
0 215 822 210 826 -1 1 -122 -116 -269 -260z"/>
<path d="M3831 3199 c-51 -188 -89 -345 -84 -349 11 -10 505 -192 509 -188 3
3 -324 869 -330 876 -2 1 -45 -151 -95 -339z"/>
<path d="M1581 3126 c-238 -172 -433 -317 -433 -322 0 -4 108 -61 240 -125
l240 -117 12 81 c35 244 169 466 360 600 19 13 21 23 18 106 l-3 91 -434 -314z"/>
<path d="M2040 3356 l0 -86 51 25 c27 14 62 30 76 36 l26 10 -49 33 c-27 18
-61 41 -76 51 l-28 17 0 -86z"/>
<path d="M2399 3129 c-120 -17 -244 -77 -319 -154 l-40 -41 2 -278 3 -278 365
262 c201 145 373 270 383 280 18 16 11 21 -137 118 -93 62 -164 102 -178 101
-13 -1 -48 -5 -79 -10z"/>
<path d="M2563 3123 c4 -3 64 -43 134 -89 l128 -83 12 32 c6 18 12 39 12 48 1
19 -85 60 -174 84 -60 15 -124 20 -112 8z"/>
<path d="M777 2733 c3 -202 8 -437 12 -522 l6 -154 153 365 c83 200 152 369
152 374 0 8 -212 207 -301 281 l-28 24 6 -368z"/>
<path d="M2861 2999 c-6 -18 -11 -38 -11 -44 0 -13 107 -32 117 -21 8 7 -12
31 -58 66 l-37 30 -11 -31z"/>
<path d="M2445 2643 c-209 -150 -381 -277 -383 -282 -1 -4 66 -32 150 -61 84
-29 159 -55 166 -58 9 -3 12 24 12 117 l0 121 278 2 279 3 -57 205 c-31 113
-58 210 -61 216 -2 6 -175 -112 -384 -263z"/>
<path d="M2850 2914 c0 -5 27 -103 59 -219 l58 -210 188 -3 187 -2 -7 -75 c-4
-41 -4 -75 -2 -75 8 0 370 500 366 505 -5 4 -393 44 -397 40 -2 -2 4 -27 12
-56 9 -29 16 -54 16 -56 0 -2 -61 -2 -136 -1 l-135 3 -24 59 c-13 33 -30 65
-37 72 -15 15 -148 31 -148 18z"/>
<path d="M1977 2848 c-52 -88 -87 -203 -94 -314 l-6 -92 72 -36 71 -36 0 270
c0 148 -1 270 -3 270 -2 0 -20 -28 -40 -62z"/>
<path d="M3743 2803 c3 -15 45 -238 94 -495 48 -257 90 -464 94 -460 9 11 329
768 329 779 0 5 -87 42 -192 81 -106 39 -224 83 -262 97 l-68 26 5 -28z"/>
<path d="M3519 2546 c-130 -178 -201 -285 -208 -313 -16 -59 -56 -146 -96
-209 -19 -30 -34 -54 -32 -54 1 0 164 -36 362 -79 198 -43 361 -77 362 -77 3
3 -185 998 -189 1001 -2 1 -91 -120 -199 -269z"/>
<path d="M752 2768 c-1 -21 -7 -116 -13 -212 -9 -152 -8 -190 6 -286 10 -61
18 -110 19 -108 1 2 -1 147 -4 323 -4 176 -7 303 -8 283z"/>
<path d="M1135 2768 c2 -7 52 -220 111 -473 58 -253 109 -463 113 -466 3 -4
71 47 151 113 80 66 157 129 172 141 l27 22 -24 68 c-31 84 -55 218 -55 304
l0 64 -246 119 c-136 66 -248 120 -250 120 -2 0 -1 -6 1 -12z"/>
<path d="M1106 2750 c-134 -317 -312 -746 -311 -748 3 -4 525 -182 534 -182 6
0 -196 891 -212 933 -3 8 -7 8 -11 -3z"/>
<path d="M4099 2191 c-86 -201 -155 -368 -153 -370 2 -2 64 12 138 30 114 28
136 36 136 52 0 10 9 151 21 313 11 163 19 306 17 319 -2 14 -61 -112 -159
-344z"/>
<path d="M1890 2395 c0 -24 23 -115 29 -115 3 0 25 17 49 38 l42 37 -60 27
c-44 20 -60 23 -60 13z"/>
<path d="M2043 2324 c3 -10 18 -86 33 -169 31 -172 34 -177 133 -229 92 -48
178 -68 292 -68 80 0 110 5 180 29 47 16 110 46 140 66 55 36 96 74 88 81 -2
1 -191 69 -419 149 -228 80 -423 149 -434 153 -15 6 -17 3 -13 -12z"/>
<path d="M1972 2298 c-23 -18 -41 -39 -41 -46 -2 -35 130 -244 145 -230 5 5
-50 295 -57 303 -3 3 -25 -9 -47 -27z"/>
<path d="M2430 2226 c0 -1 113 -43 251 -91 282 -99 254 -99 312 -2 61 101 72
97 -269 97 -162 0 -294 -2 -294 -4z"/>
<path d="M1545 1947 c-93 -77 -169 -143 -169 -146 2 -6 828 -471 831 -467 1 0
-13 78 -30 171 l-32 169 -72 41 c-139 78 -241 177 -324 316 l-34 55 -170 -139z"/>
<path d="M893 1858 c46 -62 184 -249 307 -416 123 -166 224 -301 226 -299 4 3
-83 647 -87 651 -7 5 -514 176 -522 176 -4 0 30 -51 76 -112z"/>
<path d="M3137 1923 l-26 -28 25 -344 c13 -190 26 -346 28 -348 2 -2 168 130
370 294 202 164 364 299 359 300 -30 8 -710 153 -719 153 -5 0 -22 -12 -37
-27z"/>
<path d="M3033 1821 c-70 -63 -187 -129 -296 -167 -81 -28 -108 -45 -283 -179
-107 -81 -194 -150 -194 -154 0 -8 869 -136 876 -129 5 6 -41 666 -47 672 -2
2 -28 -17 -56 -43z"/>
<path d="M877 1830 c11 -19 64 -119 117 -223 l97 -187 127 -113 c70 -62 133
-117 140 -121 13 -8 -459 637 -486 664 -9 9 -7 1 5 -20z"/>
<path d="M4063 1827 c-67 -18 -127 -36 -132 -42 -5 -5 -69 -145 -141 -310
-161 -364 -164 -373 -152 -360 5 6 130 170 277 365 147 195 272 361 278 368
12 16 14 16 -130 -21z"/>
<path d="M1407 1468 c23 -172 42 -323 43 -335 0 -13 6 -23 13 -23 15 0 718
198 724 204 2 2 -42 30 -99 62 -57 32 -242 136 -412 231 -169 95 -309 173
-310 173 -1 0 17 -141 41 -312z"/>
<path d="M3535 1474 c-192 -156 -351 -288 -353 -292 -2 -7 364 -142 386 -142
8 0 326 709 320 715 -2 2 -160 -125 -353 -281z"/>
<path d="M2170 1656 c0 -15 59 -318 62 -322 3 -2 333 247 356 270 11 11 0 12
-62 8 -84 -5 -211 11 -298 38 -40 12 -58 14 -58 6z"/>
<path d="M1848 1197 c-197 -56 -358 -104 -358 -107 0 -6 993 -360 998 -356 4
5 -271 566 -277 565 -3 0 -167 -47 -363 -102z"/>
<path d="M2317 1142 c41 -86 103 -215 136 -285 35 -73 66 -126 72 -123 20 7
595 429 591 433 -2 2 -187 30 -412 63 -225 33 -421 62 -436 64 -26 5 -26 3 49
-152z"/>
<path d="M2863 953 c-156 -114 -282 -208 -280 -209 3 -3 912 261 941 274 14 6
-28 25 -170 75 -104 37 -193 67 -199 67 -5 0 -137 -94 -292 -207z"/>
<path d="M1685 943 c88 -60 165 -112 172 -116 12 -8 524 -89 529 -84 2 2 -757
276 -846 305 -8 3 57 -44 145 -105z"/>
</g>
</svg>
